<?xml version="1.0" encoding="UTF-8"?>
<svg id="Layer_1" data-name="Layer 1" xmlns="http://www.w3.org/2000/svg" viewBox="0 0 845.28 1055.13">
  <defs>
    <style>
      .cls-1 {
        fill: #141414;
      }
    </style>
  </defs>
  <path class="cls-1" d="m834.6,451.24c-42.01,201.52-243.2,197.19-243.2,197.19,135.33,11.14,191.71-59.38,207.41-84.69.64-1.01,2.19-.24,1.8.9-54.99,161.14-263.84,205.49-263.84,205.49-51.77,12.64-24.24,43.51-24.24,43.51,0,0,40.69,53.95-22.03,123.37,0,0-17.26,13.64-3.21,54.47,0,0-24.67-3.37-33.81-26.53,0,0,3.51,68.57-43.1,90.17,0,0,19.85-46.33-8.89-56.79,0,0-81.74-56.64-38.84-144.1,0,0-34.12,22.23-34.4,51.75,0,0-24.27-45.48,4.47-92.35,0,0,27.53-30.87-24.24-43.51,0,0-218.61-44.7-272.79-207.48-.36-1.1,1.14-1.85,1.78-.9,15.69,23.34,77.3,98.14,216.41,86.69,0,0-201.17,4.33-243.2-197.17-.26-1.25,1.28-2.12,2.18-1.21,14.65,15.01,79.71,77.88,148.85,85.95,0,0-225.76-103.28-143.8-290.73.67-1.51,2.79-1.68,3.64-.26,10.92,18.13,63.45,103.59,90.51,113.98,0,0-161.1-197.09,85.44-358.86.75-.49,1.61.5,1.01,1.15-20.17,22.03-98.73,119.5-61.33,266.19,0,0,2.69-37.41,12.45-53.36.67-1.08,2.36-.58,2.36.69.01,15.28,1.15,71.12,16.66,106.18,3,6.8,4.68,14.1,5.37,21.49,4.43,47.16,31.75,211.4,198.06,227.1l4.83.22h.01c1.75.71,3.25.72,4.51.22,8.21-3.21,7.06-27.83,7.06-27.83-7.8,9.62-35.76,6.54-35.76,6.54-5.23-.31-1.51-4.02-1.51-4.02,14.96-3.95,27.83-41.6,27.83-41.6,50.39-64.12,114.31-56.36,114.31-56.36,7.59,4.18,1.44,6.83,1.44,6.83-30.25,21.27-29.94,46.74-29.94,46.74-5.18,21.62,1.79,17.48,1.79,17.48,12.21-8.81,24.35-8.48,24.35-8.48,5.06,2.26,1.68,3.77,1.68,3.77-35.03,16-32.41,51.46-32.41,51.46,3.05,3.47,7.02,4.77,10.59,5.13,4.99.5,9.24-.86,9.24-.86,160.16-19.55,186.77-179.86,191.14-226.35.69-7.4,2.37-14.69,5.37-21.49,15.51-35.06,16.65-90.91,16.66-106.18,0-1.28,1.69-1.78,2.36-.69,9.75,15.96,12.45,53.36,12.45,53.36,37.41-146.68-41.15-244.17-61.33-266.2-.6-.65.26-1.62,1.01-1.14,246.54,161.77,85.44,358.86,85.44,358.86,27.06-10.41,79.61-95.89,90.51-114,.85-1.4,2.97-1.23,3.62.26,81.99,187.45-143.78,290.75-143.78,290.75,69.17-8.08,134.25-70.98,148.88-85.97.89-.92,2.43-.04,2.16,1.21Z"/>
</svg>