<?xml version="1.0" encoding="utf-8"?>
<!-- Generator: Adobe Illustrator 27.3.1, SVG Export Plug-In . SVG Version: 6.00 Build 0)  -->
<svg version="1.1" id="Layer_1" xmlns="http://www.w3.org/2000/svg" xmlns:xlink="http://www.w3.org/1999/xlink" x="0px" y="0px"
	 viewBox="0 0 1020.5 442" style="enable-background:new 0 0 1020.5 442;" xml:space="preserve">
<style type="text/css">
	.st0{fill:#141414;}
</style>
<g>
	<g>
		<path class="st0" d="M203,236.7c0,0-1.5,0.5-3.4,0.3l0.8,0C201.4,236.9,202.2,236.8,203,236.7z"/>
		<path class="st0" d="M332,193.9c-15.3,73.3-88.5,71.8-88.5,71.8c49.2,4.1,69.8-21.6,75.5-30.8c0.2-0.4,0.8-0.1,0.7,0.3
			c-20,58.6-96,74.8-96,74.8c-18.8,4.6-8.8,15.8-8.8,15.8s14.8,19.6-8,44.9c0,0-6.3,5-1.2,19.8c0,0-9-1.2-12.3-9.7
			c0,0,1.3,25-15.7,32.8c0,0,7.2-16.9-3.2-20.7c0,0-29.7-20.6-14.1-52.4c0,0-12.4,8.1-12.5,18.8c0,0-8.8-16.5,1.6-33.6
			c0,0,10-11.2-8.8-15.8c0,0-79.5-16.3-99.3-75.5c-0.1-0.4,0.4-0.7,0.6-0.3c5.7,8.5,28.1,35.7,78.7,31.5c0,0-73.2,1.6-88.5-71.7
			c-0.1-0.5,0.5-0.8,0.8-0.4c5.3,5.5,29,28.3,54.2,31.3c0,0-82.1-37.6-52.3-105.8c0.2-0.6,1-0.6,1.3-0.1c4,6.6,23.1,37.7,32.9,41.5
			c0,0-58.6-71.7,31.1-130.6c0.3-0.2,0.6,0.2,0.4,0.4c-7.3,8-35.9,43.5-22.3,96.9c0,0,1-13.6,4.5-19.4c0.2-0.4,0.9-0.2,0.9,0.3
			c0,5.6,0.4,25.9,6.1,38.6c1.1,2.5,1.7,5.1,2,7.8c1.6,17.2,11.6,76.9,72.1,82.6l1.8,0.1h0c0.6,0.3,1.2,0.3,1.6,0.1
			c3-1.2,2.6-10.1,2.6-10.1c-2.8,3.5-13,2.4-13,2.4c-1.9-0.1-0.6-1.5-0.6-1.5c5.4-1.4,10.1-15.1,10.1-15.1
			c18.3-23.3,41.6-20.5,41.6-20.5c2.8,1.5,0.5,2.5,0.5,2.5c-11,7.7-10.9,17-10.9,17c-1.9,7.9,0.7,6.4,0.7,6.4
			c4.4-3.2,8.9-3.1,8.9-3.1c1.8,0.8,0.6,1.4,0.6,1.4c-12.7,5.8-11.8,18.7-11.8,18.7c1.1,1.3,2.6,1.7,3.9,1.9
			c1.8,0.2,3.4-0.3,3.4-0.3c58.3-7.1,68-65.4,69.5-82.4c0.3-2.7,0.9-5.3,2-7.8c5.6-12.8,6.1-33.1,6.1-38.6c0-0.5,0.6-0.6,0.9-0.3
			c3.5,5.8,4.5,19.4,4.5,19.4c13.6-53.4-15-88.8-22.3-96.9c-0.2-0.2,0.1-0.6,0.4-0.4c89.7,58.9,31.1,130.6,31.1,130.6
			c9.8-3.8,29-34.9,32.9-41.5c0.3-0.5,1.1-0.4,1.3,0.1c29.8,68.2-52.3,105.8-52.3,105.8c25.2-2.9,48.9-25.8,54.2-31.3
			C331.6,193.1,332.1,193.5,332,193.9z"/>
		<path class="st0" d="M167.1,237.1c-0.5,0.2-1,0.2-1.6-0.1L167.1,237.1z"/>
	</g>
	<g>
		<path class="st0" d="M426.5,222.9c-14.1,0-25.2-3.9-33.1-11.8c-8-7.9-11.9-19.1-11.9-33.8v-55.6h23.2v55c0,9.4,1.9,16.2,5.8,20.4
			c3.9,4.2,9.3,6.3,16.2,6.3c7,0,12.5-2.1,16.4-6.3c3.9-4.2,5.8-11,5.8-20.4v-55h22.6v55.6c0,14.7-4,26-11.9,33.8
			C451.5,218.9,440.5,222.9,426.5,222.9z"/>
		<path class="st0" d="M494.3,221.1v-99.5h19.1l58.7,71.7h-9.2v-71.7h22.8v99.5h-19.1l-58.7-71.7h9.2v71.7H494.3z"/>
		<path class="st0" d="M609.2,221.1v-99.5h43.1c8.9,0,16.6,1.4,23,4.3c6.4,2.9,11.4,7,14.9,12.4c3.5,5.4,5.3,11.8,5.3,19.2
			c0,7.5-1.8,13.9-5.3,19.3c-3.5,5.4-8.5,9.4-14.9,12.2c-6.4,2.8-14.1,4.2-23,4.2h-30.4l10.5-10v37.8H609.2z M632.4,185.9
			l-10.5-10.9H651c7,0,12.3-1.5,15.9-4.6c3.6-3,5.4-7.3,5.4-12.8c0-5.5-1.8-9.7-5.4-12.7c-3.6-3-8.9-4.5-15.9-4.5h-29.2l10.5-10.9
			V185.9z M672.6,221.1l-25-36.1h24.7l25,36.1H672.6z"/>
		<path class="st0" d="M736.6,202.7h54.2v18.5h-77.1v-99.5h75.2v18.5h-52.3V202.7z M734.9,161.6h47.9v18.1h-47.9V161.6z"/>
		<path class="st0" d="M796,221.1l44.2-99.5H863l44.7,99.5h-24.2l-36.5-87.9h9.2l-36.5,87.9H796z M818.4,199.8l5.8-17.5h51.5l6,17.5
			H818.4z"/>
		<path class="st0" d="M918,221.1v-99.5h23.2v80.8h49.6v18.8H918z"/>
		<path class="st0" d="M468,300.8c-4.2,0-8.3-0.6-12.1-1.9c-3.9-1.3-6.9-3-9.1-5l2.9-6.2c2.1,1.9,4.8,3.4,8.1,4.6
			c3.3,1.2,6.7,1.8,10.2,1.8c3.2,0,5.8-0.4,7.9-1.1c2-0.7,3.5-1.8,4.4-3.1c1-1.3,1.4-2.8,1.4-4.4c0-1.9-0.6-3.4-1.9-4.6
			c-1.2-1.2-2.9-2.1-4.8-2.8c-2-0.7-4.2-1.3-6.5-1.9c-2.4-0.5-4.8-1.2-7.2-1.9c-2.4-0.7-4.6-1.6-6.6-2.7c-2-1.1-3.6-2.6-4.8-4.5
			c-1.2-1.9-1.8-4.3-1.8-7.3c0-2.9,0.8-5.5,2.3-7.9c1.5-2.4,3.8-4.3,7-5.8c3.1-1.5,7.2-2.2,12-2.2c3.2,0,6.4,0.4,9.6,1.3
			s5.9,2.1,8.3,3.7l-2.6,6.4c-2.4-1.6-4.9-2.7-7.5-3.5c-2.6-0.7-5.2-1.1-7.7-1.1c-3.1,0-5.7,0.4-7.7,1.2c-2,0.8-3.5,1.9-4.4,3.2
			c-0.9,1.3-1.4,2.8-1.4,4.4c0,2,0.6,3.5,1.9,4.7c1.2,1.2,2.9,2.1,4.8,2.8c2,0.7,4.2,1.3,6.6,1.9s4.8,1.2,7.2,1.9
			c2.4,0.7,4.6,1.6,6.6,2.7c2,1.1,3.6,2.6,4.8,4.4c1.2,1.9,1.8,4.2,1.8,7.1c0,2.8-0.8,5.4-2.3,7.8c-1.5,2.4-3.9,4.3-7.1,5.8
			C476.9,300.1,472.9,300.8,468,300.8z"/>
		<path class="st0" d="M526.2,300.8c-4.2,0-8.2-0.7-11.8-2.1c-3.6-1.4-6.8-3.4-9.4-6c-2.6-2.6-4.7-5.6-6.2-9
			c-1.5-3.4-2.2-7.2-2.2-11.3c0-4.1,0.7-7.8,2.2-11.3c1.5-3.4,3.5-6.4,6.2-9c2.6-2.6,5.8-4.6,9.4-6c3.6-1.4,7.5-2.1,11.8-2.1
			c4.2,0,8.2,0.7,11.8,2.1c3.6,1.4,6.7,3.4,9.4,6c2.6,2.6,4.7,5.6,6.2,9.1c1.5,3.5,2.2,7.2,2.2,11.3c0,4.1-0.7,7.9-2.2,11.4
			c-1.5,3.4-3.5,6.4-6.2,9c-2.6,2.6-5.8,4.6-9.4,6C534.3,300.1,530.4,300.8,526.2,300.8z M526.1,293.7c3.1,0,6-0.5,8.6-1.6
			s4.9-2.6,6.8-4.5c1.9-1.9,3.4-4.2,4.5-6.8c1.1-2.6,1.6-5.4,1.6-8.5c0-3.1-0.5-5.9-1.6-8.5c-1.1-2.6-2.6-4.8-4.5-6.8
			c-1.9-2-4.2-3.5-6.8-4.5s-5.5-1.6-8.6-1.6c-3.1,0-5.9,0.5-8.5,1.6s-4.9,2.6-6.9,4.5c-2,2-3.5,4.2-4.6,6.8
			c-1.1,2.6-1.6,5.4-1.6,8.5c0,3.1,0.5,5.9,1.6,8.5c1.1,2.6,2.6,4.9,4.6,6.8c2,1.9,4.2,3.4,6.9,4.5S523,293.7,526.1,293.7z"/>
		<path class="st0" d="M567.8,300.1v-55.6h7.9v48.7h30.1v6.9H567.8z"/>
		<path class="st0" d="M637,300.8c-7.3,0-13-2.1-17.2-6.3c-4.2-4.2-6.3-10.3-6.3-18.3v-31.6h7.9v31.3c0,6.2,1.4,10.7,4.1,13.6
			c2.7,2.9,6.6,4.3,11.6,4.3c5,0,8.9-1.4,11.6-4.3c2.7-2.9,4.1-7.4,4.1-13.6v-31.3h7.7v31.6c0,8-2.1,14.2-6.2,18.3
			C650.1,298.7,644.4,300.8,637,300.8z"/>
		<path class="st0" d="M686.8,300.1v-48.7h-19.1v-6.9h46v6.9h-19.1v48.7H686.8z"/>
		<path class="st0" d="M722.4,300.1v-55.6h7.9v55.6H722.4z"/>
		<path class="st0" d="M772.1,300.8c-4.2,0-8.2-0.7-11.8-2.1c-3.6-1.4-6.8-3.4-9.4-6c-2.6-2.6-4.7-5.6-6.2-9
			c-1.5-3.4-2.2-7.2-2.2-11.3c0-4.1,0.7-7.8,2.2-11.3c1.5-3.4,3.5-6.4,6.2-9c2.6-2.6,5.8-4.6,9.4-6c3.6-1.4,7.5-2.1,11.8-2.1
			c4.2,0,8.2,0.7,11.8,2.1c3.6,1.4,6.7,3.4,9.4,6c2.6,2.6,4.7,5.6,6.2,9.1c1.5,3.5,2.2,7.2,2.2,11.3c0,4.1-0.7,7.9-2.2,11.4
			c-1.5,3.4-3.5,6.4-6.2,9c-2.6,2.6-5.8,4.6-9.4,6C780.2,300.1,776.3,300.8,772.1,300.8z M772,293.7c3.1,0,6-0.5,8.6-1.6
			s4.9-2.6,6.8-4.5c1.9-1.9,3.4-4.2,4.5-6.8c1.1-2.6,1.6-5.4,1.6-8.5c0-3.1-0.5-5.9-1.6-8.5c-1.1-2.6-2.6-4.8-4.5-6.8
			c-1.9-2-4.2-3.5-6.8-4.5s-5.5-1.6-8.6-1.6c-3.1,0-5.9,0.5-8.5,1.6s-4.9,2.6-6.9,4.5c-2,2-3.5,4.2-4.6,6.8
			c-1.1,2.6-1.6,5.4-1.6,8.5c0,3.1,0.5,5.9,1.6,8.5c1.1,2.6,2.6,4.9,4.6,6.8c2,1.9,4.2,3.4,6.9,4.5S768.9,293.7,772,293.7z"/>
		<path class="st0" d="M813.7,300.1v-55.6h6.5l36.8,45.7h-3.4v-45.7h7.9v55.6H855l-36.8-45.7h3.4v45.7H813.7z"/>
		<path class="st0" d="M894.3,300.8c-4.2,0-8.3-0.6-12.1-1.9c-3.9-1.3-6.9-3-9.1-5l2.9-6.2c2.1,1.9,4.8,3.4,8.1,4.6
			c3.3,1.2,6.7,1.8,10.2,1.8c3.2,0,5.8-0.4,7.9-1.1c2-0.7,3.5-1.8,4.4-3.1c1-1.3,1.4-2.8,1.4-4.4c0-1.9-0.6-3.4-1.9-4.6
			c-1.2-1.2-2.9-2.1-4.8-2.8c-2-0.7-4.2-1.3-6.5-1.9c-2.4-0.5-4.8-1.2-7.2-1.9c-2.4-0.7-4.6-1.6-6.6-2.7c-2-1.1-3.6-2.6-4.8-4.5
			c-1.2-1.9-1.8-4.3-1.8-7.3c0-2.9,0.8-5.5,2.3-7.9c1.5-2.4,3.8-4.3,7-5.8c3.1-1.5,7.2-2.2,12-2.2c3.2,0,6.4,0.4,9.6,1.3
			s5.9,2.1,8.3,3.7l-2.6,6.4c-2.4-1.6-4.9-2.7-7.5-3.5s-5.2-1.1-7.7-1.1c-3.1,0-5.7,0.4-7.7,1.2c-2,0.8-3.5,1.9-4.4,3.2
			c-0.9,1.3-1.4,2.8-1.4,4.4c0,2,0.6,3.5,1.9,4.7c1.2,1.2,2.9,2.1,4.8,2.8c2,0.7,4.2,1.3,6.5,1.9s4.8,1.2,7.2,1.9
			c2.4,0.7,4.6,1.6,6.6,2.7c2,1.1,3.6,2.6,4.8,4.4c1.2,1.9,1.8,4.2,1.8,7.1c0,2.8-0.8,5.4-2.3,7.8c-1.5,2.4-3.9,4.3-7.1,5.8
			C903.2,300.1,899.2,300.8,894.3,300.8z"/>
	</g>
</g>
</svg>
